<svg width="32" height="32" viewBox="0 0 32 32" fill="none" xmlns="http://www.w3.org/2000/svg">
<g clip-path="url(#clip0_3_145)">
<path d="M18.6667 10.6666V7.99998C18.6667 7.29274 18.3857 6.61446 17.8856 6.11436C17.3855 5.61426 16.7072 5.33331 16 5.33331H6.66667C5.95942 5.33331 5.28115 5.61426 4.78105 6.11436C4.28095 6.61446 4 7.29274 4 7.99998V24C4 24.7072 4.28095 25.3855 4.78105 25.8856C5.28115 26.3857 5.95942 26.6666 6.66667 26.6666H16C16.7072 26.6666 17.3855 26.3857 17.8856 25.8856C18.3857 25.3855 18.6667 24.7072 18.6667 24V21.3333" stroke="#62618F" stroke-width="2" stroke-linecap="round" stroke-linejoin="round"/>
<path d="M9.33334 16H28M28 16L24 12M28 16L24 20" stroke="#62618F" stroke-width="2" stroke-linecap="round" stroke-linejoin="round"/>
</g>
<defs>
<clipPath id="clip0_3_145">
<rect width="32" height="32" fill="white"/>
</clipPath>
</defs>
</svg>
