<svg width="32" height="32" viewBox="0 0 32 32" fill="none" xmlns="http://www.w3.org/2000/svg">
<g clip-path="url(#clip0_3_109)">
<path d="M22.6667 14.6667H9.33334C7.86058 14.6667 6.66667 15.8606 6.66667 17.3333V25.3333C6.66667 26.8061 7.86058 28 9.33334 28H22.6667C24.1394 28 25.3333 26.8061 25.3333 25.3333V17.3333C25.3333 15.8606 24.1394 14.6667 22.6667 14.6667Z" stroke="#62618F" stroke-width="2" stroke-linecap="round" stroke-linejoin="round"/>
<path d="M16 22.6667C16.7364 22.6667 17.3333 22.0697 17.3333 21.3333C17.3333 20.597 16.7364 20 16 20C15.2636 20 14.6667 20.597 14.6667 21.3333C14.6667 22.0697 15.2636 22.6667 16 22.6667Z" stroke="#62618F" stroke-width="2" stroke-linecap="round" stroke-linejoin="round"/>
<path d="M10.6667 14.6667V9.33333C10.6667 7.91885 11.2286 6.56229 12.2288 5.5621C13.229 4.5619 14.5855 4 16 4C17.4145 4 18.771 4.5619 19.7712 5.5621C20.7714 6.56229 21.3333 7.91885 21.3333 9.33333V14.6667" stroke="#62618F" stroke-width="2" stroke-linecap="round" stroke-linejoin="round"/>
</g>
<defs>
<clipPath id="clip0_3_109">
<rect width="32" height="32" fill="white"/>
</clipPath>
</defs>
</svg>
